<svg xmlns="http://www.w3.org/2000/svg" viewBox="0 0 64 64" fill="none">
	<defs>
		<linearGradient id="bg" x1="8" y1="8" x2="56" y2="56" gradientUnits="userSpaceOnUse">
			<stop stop-color="#0f6d8f" />
			<stop offset="1" stop-color="#f59f3a" />
		</linearGradient>
		<linearGradient id="face" x1="20" y1="20" x2="44" y2="44" gradientUnits="userSpaceOnUse">
			<stop stop-color="#f6c49a" />
			<stop offset="1" stop-color="#e89f67" />
		</linearGradient>
	</defs>

	<rect x="4" y="4" width="56" height="56" rx="16" fill="url(#bg)" />
	<circle cx="32" cy="31" r="14" fill="url(#face)" stroke="#1f2d2c" stroke-width="2.5" />

	<path d="M20 18h24v8H20z" fill="#f9fbff" stroke="#1f2d2c" stroke-width="2.5" />
	<path d="M23 13h18c1.7 0 3 1.3 3 3v2H20v-2c0-1.7 1.3-3 3-3z" fill="#f9fbff" stroke="#1f2d2c" stroke-width="2.5" />

	<path d="M18 36h28v16H18z" fill="#ecf3fa" stroke="#1f2d2c" stroke-width="2.5" />
	<path d="M32 36v16" stroke="#1f2d2c" stroke-width="2.5" />
	<path d="M22 44h8" stroke="#1f2d2c" stroke-width="2.5" />

	<path d="M40 41c2.8 0 5 2.2 5 5v2" stroke="#0f6d8f" stroke-width="2.5" stroke-linecap="round" />
	<circle cx="45" cy="50" r="2.5" fill="#0f6d8f" />

	<path d="M26 29h4" stroke="#1f2d2c" stroke-width="2.5" stroke-linecap="round" />
	<path d="M34 29h4" stroke="#1f2d2c" stroke-width="2.5" stroke-linecap="round" />
	<path d="M28 35h8" stroke="#1f2d2c" stroke-width="2.5" stroke-linecap="round" />

	<circle cx="53" cy="53" r="7" fill="#ffffff" stroke="#1f2d2c" stroke-width="2.5" />
	<path d="M53 50v6M50 53h6" stroke="#f59f3a" stroke-width="2.5" stroke-linecap="round" />
</svg>